<?xml version="1.0" encoding="UTF-8"?>
<svg width="47px" height="61px" viewBox="0 0 47 61" version="1.1" xmlns="http://www.w3.org/2000/svg" xmlns:xlink="http://www.w3.org/1999/xlink">
    <title>Group 3</title>
    <defs>
        <path d="M23.5,0 C36.4786916,-2.38414697e-15 47,10.5213084 47,23.5 L47,32.8076923 C47,33.2433572 46.9881447,33.6762532 46.9647391,34.1060752 C46.9878164,34.3619406 47,34.6214781 47,34.8838612 L47,52.7058824 C47,57.286597 43.286597,61 38.7058824,61 C35.3901611,61 32.5288675,59.0543638 31.2014033,56.2424933 C29.8744939,59.0543638 27.0132003,61 23.697479,61 C20.2062746,61 17.2188715,58.8429702 15.9952824,55.7889232 C14.7727252,58.8429702 11.7853221,61 8.29411765,61 C3.71340296,61 4.11368944e-15,57.286597 0,52.7058824 L0,34.8838612 C-3.21326645e-17,34.6214781 0.0121836487,34.3619406 0.0360160658,34.1057837 C0.011855316,33.6762532 -2.30198163e-16,33.2433572 0,32.8076923 L0,23.5 C-1.58943132e-15,10.5213084 10.5213084,2.38414697e-15 23.5,0 Z" id="path-1"></path>
    </defs>
    <g id="Page-1" stroke="none" stroke-width="1" fill="none" fill-rule="evenodd">
        <g id="Artboard" transform="translate(-185.000000, -619.000000)">
            <g id="Rectangle-Copy-6" transform="translate(185.000000, 619.000000)">
                <g id="Mask">
                    <mask id="mask-2" fill="white">
                        <use xlink:href="#path-1"></use>
                    </mask>
                    <use fill="#97FF89" xlink:href="#path-1"></use>
                    <rect id="Rectangle-Copy-7" fill="#FF8997" mask="url(#mask-2)" x="-0.789915966" y="-8.21153846" width="16.5882353" height="73.9038462" rx="8.29411765"></rect>
                </g>
                <rect fill="#89A3FF" x="31.2016807" y="-8.21153846" width="16.5882353" height="75.0769231" rx="8.29411765"></rect>
            </g>
        </g>
    </g>
</svg>