<?xml version="1.0" encoding="UTF-8"?>
<svg width="261px" height="109px" viewBox="0 0 261 109" version="1.1" xmlns="http://www.w3.org/2000/svg" xmlns:xlink="http://www.w3.org/1999/xlink">
    <title>Group 4</title>
    <g id="Page-1" stroke="none" stroke-width="1" fill="none" fill-rule="evenodd">
        <g id="Artboard" transform="translate(-180.000000, -342.000000)">
            <g id="Group-4" transform="translate(180.000000, 342.000000)">
                <rect id="Rectangle" fill="#242424" x="0" y="0" width="261" height="109" rx="33"></rect>
                <g id="Mask-Copy" transform="translate(41.000000, 19.000000)">
                    <g id="Group-Copy-2" fill="#FFFFFF" fill-rule="nonzero">
                        <path d="M9.4064275,69.03 L9.5864275,50.67 C11.6264275,53.67 15.2564275,55.17 20.4764275,55.17 C25.3364275,55.17 29.2964275,53.34 32.3564275,49.68 C35.4164275,46.02 36.9464275,41.46 36.9464275,36 C36.9464275,30.96 35.4014275,26.58 32.3114275,22.86 C29.2214275,19.14 25.3364275,17.28 20.6564275,17.28 C15.6764275,17.28 11.9264275,18.75 9.4064275,21.69 L9.4064275,21.69 L9.4064275,18.45 L0.6764275,18.45 L0.6764275,69.03 L9.4064275,69.03 Z M18.2264275,47.61 C15.6464275,47.61 13.3664275,46.44 11.3864275,44.1 C9.4064275,41.76 8.4164275,39.105 8.4164275,36.135 C8.4164275,33.165 9.3464275,30.54 11.2064275,28.26 C13.0664275,25.98 15.4064275,24.84 18.2264275,24.84 C21.2864275,24.84 23.6864275,25.965 25.4264275,28.215 C27.1664275,30.465 28.0364275,33.12 28.0364275,36.18 C28.0364275,39.48 27.1664275,42.21 25.4264275,44.37 C23.6864275,46.53 21.2864275,47.61 18.2264275,47.61 Z M47.599285,14.13 C49.4823259,14.13 51.1197528,13.4340936 52.5115657,12.0422807 C53.9033786,10.6504678 54.599285,9.01304094 54.599285,7.13 C54.599285,5.24695906 53.9033786,3.60953216 52.5115657,2.2177193 C51.1197528,0.825906433 49.4823259,0.13 47.599285,0.13 C45.7162441,0.13 44.0788172,0.825906433 42.6870043,2.2177193 C41.2951914,3.60953216 40.599285,5.24695906 40.599285,7.13 C40.599285,9.01304094 41.2951914,10.6504678 42.6870043,12.0422807 C44.0788172,13.4340936 45.7162441,14.13 47.599285,14.13 Z M69.7921425,54 L78.7921425,40.68 L88.5121425,54 L99.4921425,54 L84.7321425,34.56 L97.1521425,18.45 L86.0821425,18.45 L79.7821425,28.44 L72.4021425,18.45 L61.6021425,18.45 L73.7521425,34.65 L58.6321425,54 L69.7921425,54 Z M111,14 C112.883041,14 114.520468,13.3040936 115.912281,11.9122807 C117.304094,10.5204678 118,8.88304094 118,7 C118,5.11695906 117.304094,3.47953216 115.912281,2.0877193 C114.520468,0.695906433 112.883041,0 111,0 C109.116959,0 107.479532,0.695906433 106.087719,2.0877193 C104.695906,3.47953216 104,5.11695906 104,7 C104,8.88304094 104.695906,10.5204678 106.087719,11.9122807 C107.479532,13.3040936 109.116959,14 111,14 Z M142.527858,69.21 C153.867858,69.21 159.537858,63.12 159.537858,50.94 L159.537858,50.94 L159.537858,18.27 L150.807858,18.27 L150.807858,21.69 C148.527858,18.63 144.942858,17.1 140.052858,17.1 C135.162858,17.1 131.187858,18.93 128.127858,22.59 C125.067858,26.25 123.537858,30.81 123.537858,36.27 C123.537858,41.31 124.962858,45.57 127.812858,49.05 C130.662858,52.53 134.592858,54.27 139.602858,54.27 C144.612858,54.27 148.347858,52.71 150.807858,49.59 L150.807858,49.59 L150.807858,51.84 C150.807858,58.68 147.957858,62.1 142.257858,62.1 C140.097858,62.1 138.147858,61.26 136.407858,59.58 C134.667858,57.9 133.797858,56.19 133.797858,54.45 L133.797858,54.45 L124.527858,54.45 C124.527858,58.83 126.267858,62.385 129.747858,65.115 C133.227858,67.845 137.487858,69.21 142.527858,69.21 Z M142.257858,46.71 C135.657858,46.71 132.357858,43.17 132.357858,36.09 C132.357858,32.79 133.272858,30.06 135.102858,27.9 C136.932858,25.74 139.317858,24.66 142.257858,24.66 C145.197858,24.66 147.567858,25.65 149.367858,27.63 C151.167858,29.61 152.067858,32.22 152.067858,35.46 C152.067858,38.7 151.182858,41.385 149.412858,43.515 C147.642858,45.645 145.257858,46.71 142.257858,46.71 Z" id="pixigi"></path>
                        <path d="M173,14 C174.883041,14 176.520468,13.3040936 177.912281,11.9122807 C179.304094,10.5204678 180,8.88304094 180,7 C180,5.11695906 179.304094,3.47953216 177.912281,2.0877193 C176.520468,0.695906433 174.883041,0 173,0 C171.116959,0 169.479532,0.695906433 168.087719,2.0877193 C166.695906,3.47953216 166,5.11695906 166,7 C166,8.88304094 166.695906,10.5204678 168.087719,11.9122807 C169.479532,13.3040936 171.116959,14 173,14 Z" id="Path"></path>
                    </g>
                    <g id="icon-copy-2" transform="translate(41.000000, 17.000000)">
                        <rect id="Rectangle" fill="#EA8D7A" x="0" y="0" width="14" height="38" rx="7"></rect>
                        <rect id="Rectangle-Copy-2" fill="#C5EA7A" x="63" y="0" width="14" height="38" rx="7"></rect>
                        <rect id="Rectangle-Copy-3" fill="#9F7AEA" x="125" y="0" width="14" height="38" rx="7"></rect>
                    </g>
                </g>
            </g>
        </g>
    </g>
</svg>