<?xml version="1.0" encoding="UTF-8"?>
<svg width="275px" height="106px" viewBox="0 0 275 106" version="1.1" xmlns="http://www.w3.org/2000/svg" xmlns:xlink="http://www.w3.org/1999/xlink">
    <title>Rectangle Copy 11</title>
    <g id="Page-1" stroke="none" stroke-width="1" fill="none" fill-rule="evenodd">
        <g id="Artboard" transform="translate(-158.000000, -308.000000)">
            <g id="Mask-Copy-4" transform="translate(158.000000, 308.000000)">
                <g id="Group-Copy-7" fill-rule="nonzero">
                    <path d="M168.583333,21.4 C171.460201,21.4 173.961826,20.3362573 176.088207,18.2087719 C178.214587,16.0812865 179.277778,13.5783626 179.277778,10.7 C179.277778,7.82163743 178.214587,5.31871345 176.088207,3.19122807 C173.961826,1.06374269 171.460201,0 168.583333,0 C165.706465,0 163.204841,1.06374269 161.07846,3.19122807 C158.952079,5.31871345 157.888889,7.82163743 157.888889,10.7 C157.888889,13.5783626 158.952079,16.0812865 161.07846,18.2087719 C163.204841,20.3362573 165.706465,21.4 168.583333,21.4 Z" id="pixigi" fill="#97FF89"></path>
                    <path d="M71.7211299,21.5987143 C74.597998,21.5987143 77.0996224,20.5349716 79.2260032,18.4074862 C81.3523839,16.2800008 82.4155743,13.7770769 82.4155743,10.8987143 C82.4155743,8.02035171 81.3523839,5.51742774 79.2260032,3.38994236 C77.0996224,1.26245698 74.597998,0.198714286 71.7211299,0.198714286 C68.8442618,0.198714286 66.3426373,1.26245698 64.2162566,3.38994236 C62.0898758,5.51742774 61.0266854,8.02035171 61.0266854,10.8987143 C61.0266854,13.7770769 62.0898758,16.2800008 64.2162566,18.4074862 C66.3426373,20.5349716 68.8442618,21.5987143 71.7211299,21.5987143 Z" id="Path" fill="#FF8997"></path>
                    <path d="M263.305556,21.4 C266.182424,21.4 268.684048,20.3362573 270.810429,18.2087719 C272.93681,16.0812865 274,13.5783626 274,10.7 C274,7.82163743 272.93681,5.31871345 270.810429,3.19122807 C268.684048,1.06374269 266.182424,0 263.305556,0 C260.428687,0 257.927063,1.06374269 255.800682,3.19122807 C253.674301,5.31871345 252.611111,7.82163743 252.611111,10.7 C252.611111,13.5783626 253.674301,16.0812865 255.800682,18.2087719 C257.927063,20.3362573 260.428687,21.4 263.305556,21.4 Z" id="Path" fill="#89A3FF"></path>
                    <path d="M212.969643,26.1385714 C220.440477,26.1385714 225.91756,28.4772857 229.400893,33.1547143 L229.400893,33.1547143 L229.400893,27.927 L242.738393,27.927 L242.738393,77.8654286 L242.735795,78.4211759 C242.564277,96.6686777 233.902643,105.792429 216.750893,105.792429 C209.050893,105.792429 202.54256,103.705929 197.225893,99.5329286 C191.909227,95.3599286 189.250893,89.9258571 189.250893,83.2307143 L189.250893,83.2307143 L203.413393,83.2307143 L203.418863,83.5260494 C203.513673,86.0839847 204.841017,88.5993968 207.400893,91.0722857 C210.059227,93.6402857 213.038393,94.9242857 216.338393,94.9242857 C225.046727,94.9242857 229.400893,89.6965714 229.400893,79.2411429 L229.400893,79.2411429 L229.400893,75.8018571 L229.153023,76.1095074 C225.393542,80.6735501 219.769915,82.9555714 212.282143,82.9555714 C204.627977,82.9555714 198.62381,80.2958571 194.269643,74.9764286 C189.915477,69.657 187.738393,63.1452857 187.738393,55.4412857 C187.738393,47.0952857 190.075893,40.125 194.750893,34.5304286 C199.425893,28.9358571 205.49881,26.1385714 212.969643,26.1385714 Z M216.338393,37.6945714 C211.846727,37.6945714 208.202977,39.3454286 205.407143,42.6471429 C202.61131,45.9488571 201.213393,50.1218571 201.213393,55.1661429 C201.213393,65.9884286 206.25506,71.3995714 216.338393,71.3995714 C220.921727,71.3995714 224.565477,69.7716429 227.269643,66.5157857 C229.97381,63.2599286 231.325893,59.1557143 231.325893,54.2031429 C231.325893,49.2505714 229.950893,45.261 227.200893,42.2344286 C224.450893,39.2078571 220.83006,37.6945714 216.338393,37.6945714 Z" id="Combined-Shape" fill="#FFFFFF"></path>
                    <polygon id="Path" fill="#FFFFFF" points="105.626884 82.5428571 119.376884 62.1822857 134.226884 82.5428571 151.001884 82.5428571 128.451884 52.8274286 147.426884 28.2021429 130.514384 28.2021429 120.889384 43.4725714 109.614384 28.2021429 93.1143844 28.2021429 111.676884 52.965 88.5768844 82.5428571"></polygon>
                    <path d="M30.5584309,26.4137143 C37.7084309,26.4137143 43.6438476,29.2568571 48.3646809,34.9431429 C53.0855142,40.6294286 55.4459309,47.3245714 55.4459309,55.0285714 C55.4459309,63.3745714 53.1084309,70.3448571 48.4334309,75.9394286 C43.7584309,81.534 37.7084309,84.3312857 30.2834309,84.3312857 C22.3084309,84.3312857 16.7625976,82.0384286 13.6459309,77.4527143 L13.6459309,77.4527143 L13.3709309,105.517286 L0.0334309028,105.517286 L0.0334309028,28.2021429 L13.3709309,28.2021429 L13.3709309,33.1547143 L13.6303815,32.8584432 C17.4764885,28.5619572 23.1191716,26.4137143 30.5584309,26.4137143 Z M26.8459309,37.9697143 C22.5375976,37.9697143 18.9625976,39.7122857 16.1209309,43.1974286 C13.2792642,46.6825714 11.8584309,50.6950714 11.8584309,55.2349286 C11.8584309,59.7747857 13.3709309,63.8331429 16.3959309,67.41 C19.4209309,70.9868571 22.9042642,72.7752857 26.8459309,72.7752857 C31.5209309,72.7752857 35.1875976,71.1244286 37.8459309,67.8227143 C40.5042642,64.521 41.8334309,60.348 41.8334309,55.3037143 C41.8334309,50.6262857 40.5042642,46.5679286 37.8459309,43.1286429 C35.1875976,39.6893571 31.5209309,37.9697143 26.8459309,37.9697143 Z" id="Combined-Shape" fill="#FFFFFF"></path>
                </g>
                <g id="icon-copy-7" transform="translate(61.638889, 25.985714)" fill="#FFFFFF">
                    <rect id="Rectangle" x="0" y="0" width="21.3888889" height="58.0857143" rx="9.5"></rect>
                    <rect id="Rectangle-Copy-2" x="96.25" y="0" width="21.3888889" height="58.0857143" rx="9.5"></rect>
                    <rect id="Rectangle-Copy-3" x="190.972222" y="0" width="21.3888889" height="58.0857143" rx="9.5"></rect>
                </g>
            </g>
        </g>
    </g>
</svg>