<?xml version="1.0" encoding="UTF-8"?>
<svg width="512px" height="512px" viewBox="0 0 512 512" version="1.1" xmlns="http://www.w3.org/2000/svg" xmlns:xlink="http://www.w3.org/1999/xlink">
    <title>diaphragm</title>
    <g id="Page-1" stroke="none" stroke-width="1" fill="none" fill-rule="evenodd">
        <g id="diaphragm" fill="#3498DB" fill-rule="nonzero">
            <path d="M414.996,55.632 L281.551,152.586 L505.146,315.039 C509.62,296.116 512,276.393 512,256.123 C512,174.994 474.058,102.568 414.996,55.632 L414.996,55.632 Z" id="Path"></path>
            <path d="M388.984,37.449 C350.202,13.776 304.666,0.122 256,0.122 C203.698,0.122 155.018,15.9 114.445,42.929 L165.441,199.865 L388.984,37.449 Z" id="Path"></path>
            <path d="M89.141,62.132 C34.595,109.115 0,178.652 0,256.122 C0,279.927 3.278,302.978 9.385,324.861 L174.514,324.861 L89.141,62.132 Z" id="Path"></path>
            <path d="M19.817,354.862 C57.218,443.99 143.652,507.635 245.182,511.878 L296.199,354.862 L19.817,354.862 Z" id="Path"></path>
            <path d="M276.925,511.262 C377.573,503.081 461.936,436.433 495.921,345.417 L362.344,248.367 L276.925,511.262 Z" id="Path"></path>
        </g>
    </g>
</svg>