<?xml version="1.0" standalone="no"?>
<!DOCTYPE svg PUBLIC "-//W3C//DTD SVG 20010904//EN"
 "http://www.w3.org/TR/2001/REC-SVG-20010904/DTD/svg10.dtd">
<svg version="1.0" xmlns="http://www.w3.org/2000/svg"
 width="326.000000pt" height="326.000000pt" viewBox="0 0 326.000000 326.000000"
 preserveAspectRatio="xMidYMid meet">
<metadata>
Created by potrace 1.11, written by Peter Selinger 2001-2013
</metadata>
<g transform="translate(0.000000,326.000000) scale(0.100000,-0.100000)"
fill="#000000" stroke="none">
<path d="M418 3245 c-178 -44 -320 -171 -390 -351 l-23 -59 -2 -1175 c-2
-1007 -1 -1184 12 -1237 44 -186 160 -318 344 -391 l66 -27 1205 0 1205 0 66
27 c91 36 144 71 207 136 67 71 108 142 132 234 18 70 19 116 17 1253 l-2
1180 -27 66 c-34 87 -67 138 -127 198 -60 61 -113 94 -200 129 l-66 27 -1180
2 c-977 1 -1190 -1 -1237 -12z"/>
</g>
</svg>
